<svg xmlns="http://www.w3.org/2000/svg" width="16" height="15"><path fill-rule="evenodd" fill="#FFAA30" d="M15.21 5.059l-4.124-.446a.703.703 0 01-.556-.396L8.83.52c-.319-.693-1.312-.693-1.632 0L5.481 4.217a.691.691 0 01-.556.396l-4.123.446C.027 5.141-.276 6.066.297 6.577l3.063 2.74a.68.68 0 01.219.644l-.842 3.978c-.151.743.657 1.321 1.33.941l3.602-2.014a.733.733 0 01.69 0l3.602 2.014c.674.38 1.481-.198 1.33-.941l-.842-3.978a.633.633 0 01.202-.644l3.064-2.74c.555-.495.252-1.436-.505-1.518z"/></svg>