<svg xmlns="http://www.w3.org/2000/svg" width="38" height="35.969" viewBox="0 0 38 35.969"><path data-name="-e-star copy 2" d="M36.12 12.111l-9.79-1.07a1.669 1.669 0 01-1.32-.951l-4.04-8.874a2.132 2.132 0 00-3.88 0l-4.07 8.874a1.647 1.647 0 01-1.32.951l-9.8 1.07a2.093 2.093 0 00-1.2 3.645l7.28 6.576a1.632 1.632 0 01.52 1.545l-2 9.547a2.134 2.134 0 003.16 2.258l8.55-4.833a1.721 1.721 0 011.64 0l8.56 4.833a2.134 2.134 0 003.16-2.258l-2-9.547a1.523 1.523 0 01.48-1.545l7.27-6.576a2.113 2.113 0 00-1.2-3.645z" fill="#58329e" fill-rule="evenodd"/></svg>