<svg xmlns="http://www.w3.org/2000/svg" width="38" height="35.969" viewBox="0 0 38 35.969">
  <metadata><?xpacket begin="﻿" id="W5M0MpCehiHzreSzNTczkc9d"?>
<x:xmpmeta xmlns:x="adobe:ns:meta/" x:xmptk="Adobe XMP Core 5.6-c142 79.160924, 2017/07/13-01:06:39        ">
   <rdf:RDF xmlns:rdf="http://www.w3.org/1999/02/22-rdf-syntax-ns#">
      <rdf:Description rdf:about=""/>
   </rdf:RDF>
</x:xmpmeta>
                                                                                                    
                                                                                                    
                                                                                                    
                                                                                                    
                                                                                                    
                                                                                                    
                                                                                                    
                                                                                                    
                                                                                                    
                                                                                                    
                                                                                                    
                                                                                                    
                                                                                                    
                                                                                                    
                                                                                                    
                                                                                                    
                                                                                                    
                                                                                                    
                                                                                                    
                                                                                                    
                           
<?xpacket end="w"?></metadata>
<defs>
    <style>
      .cls-1 {
        fill: #58329e;
        fill-rule: evenodd;
      }
    </style>
  </defs>
  <path id="_-e-star_copy_2" data-name="-e-star copy 2" class="cls-1" d="M1111.12,73.142l-9.79-1.07a1.669,1.669,0,0,1-1.32-.951l-4.04-8.874a2.132,2.132,0,0,0-3.88,0l-4.07,8.874a1.647,1.647,0,0,1-1.32.951l-9.8,1.07a2.093,2.093,0,0,0-1.2,3.645l7.28,6.576a1.632,1.632,0,0,1,.52,1.545l-2,9.547a2.134,2.134,0,0,0,3.16,2.258l8.55-4.833a1.721,1.721,0,0,1,1.64,0l8.56,4.833a2.134,2.134,0,0,0,3.16-2.258l-2-9.547a1.523,1.523,0,0,1,.48-1.545l7.27-6.576A2.113,2.113,0,0,0,1111.12,73.142Z" transform="translate(-1075 -61.031)"/>
</svg>
