<svg xmlns="http://www.w3.org/2000/svg"
     xmlns:xlink="http://www.w3.org/1999/xlink"
     width="16px" height="15px">
    <path fill-rule="evenodd" fill="rgb(255, 170, 48)"
          d="M15.210,5.059 L11.086,4.613 C10.834,4.580 10.631,4.432 10.530,4.217 L8.830,0.520 C8.511,-0.173 7.518,-0.173 7.198,0.520 L5.481,4.217 C5.380,4.432 5.161,4.597 4.925,4.613 L0.802,5.059 C0.027,5.141 -0.276,6.066 0.297,6.577 L3.360,9.317 C3.545,9.483 3.629,9.730 3.579,9.961 L2.737,13.939 C2.586,14.682 3.394,15.260 4.067,14.880 L7.669,12.866 C7.888,12.751 8.140,12.751 8.359,12.866 L11.961,14.880 C12.635,15.260 13.442,14.682 13.291,13.939 L12.449,9.961 C12.382,9.730 12.466,9.483 12.651,9.317 L15.715,6.577 C16.270,6.082 15.967,5.141 15.210,5.059 Z"/>
</svg>
